%
M48
M72
T01C0.0197
T02C0.0394
T03C0.0400
T04C0.0787
%
T01
X6580Y9931
X7280Y11381
X5380Y11431
X5380Y12331
X9880Y12531
X11080Y12631
X12280Y14631
X12280Y15731
X11280Y16131
X10580Y16731
X15830Y13881
X15830Y12181
X15980Y9031
X15980Y8131
T02
X3096Y7605
X4080Y7605
X5064Y7605
X5064Y8590
X4080Y8590
X3096Y8590
T03
X16980Y11131
X17980Y11131
X17980Y9331
X17980Y8331
X17980Y7331
T04
X13580Y7408
X13580Y10164
X8880Y10164
X8880Y7408
M30
