G75*
%MOIN*%
%OFA0B0*%
%FSLAX25Y25*%
%IPPOS*%
%LPD*%
%AMOC8*
5,1,8,0,0,1.08239X$1,22.5*
%
%ADD10R,0.11811X0.05512*%
%ADD11R,0.03937X0.04331*%
%ADD12R,0.04331X0.03937*%
%ADD13R,0.08661X0.02362*%
%ADD14C,0.07400*%
%ADD15C,0.08600*%
%ADD16R,0.09843X0.07874*%
%ADD17R,0.07874X0.09843*%
%ADD18R,0.09843X0.04724*%
%ADD19C,0.01181*%
%ADD20C,0.01500*%
%ADD21C,0.01600*%
D10*
X0162851Y0130305D03*
X0181749Y0130305D03*
X0181749Y0157305D03*
X0162851Y0157305D03*
D11*
X0150300Y0141652D03*
X0150300Y0134959D03*
X0143300Y0134459D03*
X0143300Y0128652D03*
X0149800Y0128652D03*
X0149800Y0121959D03*
X0143300Y0121959D03*
X0143300Y0141152D03*
X0104800Y0121652D03*
X0104800Y0114959D03*
X0113300Y0104652D03*
X0119300Y0104652D03*
X0119300Y0097959D03*
X0113300Y0097959D03*
X0113300Y0091652D03*
X0119800Y0091652D03*
X0119800Y0084959D03*
X0113300Y0084959D03*
X0071300Y0084959D03*
X0071300Y0091652D03*
X0071300Y0096959D03*
X0071300Y0103652D03*
X0047800Y0102459D03*
X0047800Y0109152D03*
X0040800Y0109152D03*
X0040800Y0102459D03*
X0031800Y0102459D03*
X0031800Y0109152D03*
X0024800Y0109152D03*
X0024800Y0102459D03*
D12*
X0075454Y0156805D03*
X0082146Y0156805D03*
X0098954Y0131305D03*
X0105646Y0131305D03*
X0126954Y0151805D03*
X0133646Y0151805D03*
X0159454Y0069305D03*
X0166146Y0069305D03*
D13*
X0115036Y0141805D03*
X0115036Y0146805D03*
X0115036Y0151805D03*
X0115036Y0156805D03*
X0094564Y0156805D03*
X0094564Y0151805D03*
X0094564Y0146805D03*
X0094564Y0141805D03*
D14*
X0169800Y0111305D03*
X0179800Y0111305D03*
X0179800Y0093305D03*
X0179800Y0083305D03*
X0179800Y0073305D03*
D15*
X0050643Y0076053D03*
X0040800Y0076053D03*
X0030957Y0076053D03*
X0030957Y0085896D03*
X0040800Y0085896D03*
X0050643Y0085896D03*
D16*
X0075217Y0077234D03*
X0102383Y0069754D03*
X0122217Y0077234D03*
X0149383Y0069754D03*
X0149383Y0106368D03*
X0102383Y0106368D03*
D17*
X0085847Y0122313D03*
X0132847Y0122313D03*
D18*
X0122217Y0066211D03*
X0075217Y0066211D03*
D19*
X0160725Y0063683D02*
X0160725Y0060927D01*
X0157969Y0060927D01*
X0157969Y0063683D01*
X0160725Y0063683D01*
X0160725Y0062107D02*
X0157969Y0062107D01*
X0157969Y0063287D02*
X0160725Y0063287D01*
X0167631Y0063683D02*
X0167631Y0060927D01*
X0164875Y0060927D01*
X0164875Y0063683D01*
X0167631Y0063683D01*
X0167631Y0062107D02*
X0164875Y0062107D01*
X0164875Y0063287D02*
X0167631Y0063287D01*
D20*
X0167300Y0061805D02*
X0166253Y0062305D01*
X0167300Y0061805D02*
X0172300Y0061805D01*
X0179800Y0069305D01*
X0179800Y0070555D01*
X0176050Y0074305D01*
X0174800Y0074305D01*
X0163550Y0085555D01*
X0138550Y0085555D01*
X0126050Y0098055D01*
X0126050Y0103055D01*
X0124800Y0104305D01*
X0119800Y0104305D01*
X0119300Y0104652D01*
X0119800Y0105555D01*
X0119800Y0128055D01*
X0137300Y0145555D01*
X0138550Y0145555D01*
X0141050Y0148055D01*
X0147300Y0148055D01*
X0151050Y0144305D01*
X0151050Y0141805D01*
X0150300Y0141652D01*
X0149800Y0135555D02*
X0143550Y0135555D01*
X0143300Y0134459D01*
X0143550Y0134305D01*
X0143550Y0129305D01*
X0143300Y0128652D01*
X0149800Y0128652D02*
X0151050Y0128055D01*
X0154300Y0132305D01*
X0154300Y0148055D01*
X0143550Y0159305D01*
X0129800Y0159305D01*
X0127300Y0156805D01*
X0127300Y0151805D01*
X0126954Y0151805D01*
X0115036Y0151805D01*
X0115036Y0146805D02*
X0107300Y0146805D01*
X0103550Y0143055D01*
X0103550Y0140055D01*
X0099050Y0135555D01*
X0082550Y0135555D01*
X0068300Y0121305D01*
X0068300Y0111055D01*
X0075800Y0106555D01*
X0075800Y0089055D01*
X0082300Y0083055D01*
X0082300Y0071805D01*
X0081050Y0070555D01*
X0069800Y0070555D01*
X0066050Y0066805D01*
X0047800Y0066805D01*
X0041550Y0073055D01*
X0041550Y0076805D01*
X0040800Y0076053D01*
X0040300Y0078055D01*
X0031550Y0078055D01*
X0030957Y0076053D01*
X0030300Y0078055D01*
X0026550Y0078055D01*
X0021550Y0083055D01*
X0021550Y0090555D01*
X0025300Y0094305D01*
X0025300Y0101805D01*
X0024800Y0102459D01*
X0024800Y0109152D02*
X0025300Y0109305D01*
X0031550Y0109305D01*
X0031800Y0109152D01*
X0040800Y0109152D02*
X0041550Y0109305D01*
X0047800Y0109305D01*
X0047800Y0109152D01*
X0040800Y0102459D02*
X0040300Y0101805D01*
X0040300Y0095555D01*
X0051550Y0095555D01*
X0061550Y0105555D01*
X0061550Y0123055D01*
X0090300Y0151805D01*
X0094564Y0151805D01*
X0094564Y0146805D02*
X0089800Y0146805D01*
X0064800Y0121805D01*
X0064800Y0104305D01*
X0065300Y0104305D01*
X0051550Y0090555D01*
X0051550Y0088055D01*
X0050643Y0085896D01*
X0051550Y0086805D01*
X0051550Y0078055D02*
X0050643Y0076053D01*
X0051550Y0078055D02*
X0065300Y0091805D01*
X0065300Y0099305D01*
X0065800Y0099305D01*
X0071050Y0096805D02*
X0071300Y0096959D01*
X0071050Y0096805D02*
X0071050Y0091805D01*
X0071300Y0091652D01*
X0071300Y0084959D02*
X0072300Y0084305D01*
X0072300Y0080555D01*
X0074800Y0078055D01*
X0075217Y0077234D01*
X0067300Y0064305D02*
X0069800Y0061805D01*
X0083550Y0061805D01*
X0086050Y0064305D01*
X0092300Y0064305D01*
X0094800Y0061805D01*
X0111050Y0061805D01*
X0112300Y0063055D01*
X0112300Y0075555D01*
X0106050Y0081805D01*
X0106050Y0098055D01*
X0111050Y0103055D01*
X0112300Y0103055D01*
X0113550Y0104305D01*
X0113300Y0104652D01*
X0113550Y0098055D02*
X0113300Y0097959D01*
X0113550Y0096805D01*
X0113550Y0091805D01*
X0113300Y0091652D01*
X0113550Y0098055D02*
X0118550Y0098055D01*
X0119300Y0097959D01*
X0119800Y0091805D02*
X0119800Y0091652D01*
X0119800Y0091805D02*
X0128550Y0091805D01*
X0137300Y0083055D01*
X0139800Y0083055D01*
X0144800Y0078055D01*
X0144800Y0076805D01*
X0142300Y0074305D01*
X0142300Y0071805D01*
X0139800Y0069305D01*
X0139800Y0066805D01*
X0137300Y0064305D01*
X0131050Y0064305D01*
X0128550Y0061805D01*
X0113550Y0061805D01*
X0112300Y0063055D01*
X0109800Y0064305D02*
X0109750Y0064355D01*
X0121050Y0078055D02*
X0122217Y0077234D01*
X0121050Y0078055D02*
X0119800Y0079305D01*
X0119800Y0084959D01*
X0119800Y0085555D01*
X0113550Y0085555D01*
X0113300Y0084959D01*
X0103550Y0106805D02*
X0102383Y0106368D01*
X0103550Y0106805D02*
X0104800Y0108055D01*
X0104800Y0114959D01*
X0104800Y0121652D02*
X0104800Y0128055D01*
X0105646Y0131305D01*
X0100550Y0131305D02*
X0098954Y0131305D01*
X0099050Y0131805D01*
X0109050Y0141805D01*
X0115036Y0141805D01*
X0106050Y0149305D02*
X0106050Y0160555D01*
X0111050Y0165555D01*
X0166050Y0165555D01*
X0171050Y0160555D01*
X0171050Y0153055D01*
X0172300Y0151805D01*
X0172300Y0136805D01*
X0171050Y0135555D01*
X0171050Y0125555D01*
X0174800Y0121805D01*
X0181050Y0121805D01*
X0187300Y0115555D01*
X0187300Y0106805D01*
X0184800Y0104305D01*
X0184800Y0099305D01*
X0187300Y0096805D01*
X0187300Y0076805D01*
X0184800Y0074305D01*
X0183550Y0074305D01*
X0179800Y0070555D01*
X0179800Y0073305D01*
X0179800Y0081805D02*
X0173550Y0081805D01*
X0171050Y0084305D01*
X0171050Y0100555D01*
X0179800Y0109305D01*
X0179800Y0111305D01*
X0179800Y0114305D01*
X0174800Y0119305D01*
X0171050Y0119305D01*
X0163550Y0126805D01*
X0163550Y0129305D01*
X0162851Y0130305D01*
X0163550Y0130555D01*
X0163550Y0156805D01*
X0162851Y0157305D01*
X0143300Y0141152D02*
X0142300Y0141805D01*
X0137300Y0141805D01*
X0123550Y0128055D01*
X0123550Y0115555D01*
X0128550Y0110555D01*
X0136050Y0110555D01*
X0142300Y0104305D01*
X0142300Y0101805D01*
X0144800Y0099305D01*
X0149800Y0099305D01*
X0151050Y0098055D01*
X0154300Y0098055D01*
X0156800Y0100555D01*
X0156800Y0111055D01*
X0153550Y0114305D01*
X0153550Y0125555D01*
X0151050Y0128055D01*
X0149800Y0129305D01*
X0149800Y0128652D01*
X0150300Y0134959D02*
X0149800Y0135555D01*
X0149800Y0121959D02*
X0149800Y0121805D01*
X0149800Y0106805D01*
X0149383Y0106368D01*
X0149800Y0121805D02*
X0143550Y0121805D01*
X0143300Y0121959D01*
X0169800Y0111305D02*
X0170300Y0108055D01*
X0169600Y0108055D01*
X0171550Y0106805D02*
X0171760Y0106159D01*
X0172683Y0106601D02*
X0172800Y0106805D01*
X0173995Y0107722D02*
X0174050Y0108055D01*
X0170300Y0110555D02*
X0169600Y0110555D01*
X0170300Y0110555D02*
X0169800Y0111305D01*
X0152800Y0088105D02*
X0152800Y0088055D01*
X0159454Y0069305D02*
X0159800Y0069305D01*
X0159800Y0063055D01*
X0159347Y0062305D01*
X0179800Y0081805D02*
X0179800Y0083305D01*
X0106050Y0149305D02*
X0098550Y0141805D01*
X0094564Y0141805D01*
X0098954Y0131305D02*
X0097800Y0130555D01*
X0081550Y0130555D01*
X0072800Y0121805D01*
X0072800Y0113805D01*
X0071050Y0104305D02*
X0065300Y0104305D01*
X0071050Y0104305D02*
X0071300Y0103652D01*
X0056300Y0118805D02*
X0056550Y0119305D01*
X0059050Y0121805D01*
X0059050Y0124305D01*
X0081550Y0146805D01*
X0081550Y0156805D01*
X0082146Y0156805D01*
X0087300Y0156805D01*
X0089800Y0159305D01*
X0091050Y0159305D01*
X0092300Y0158055D01*
X0092300Y0156805D01*
X0094564Y0156805D01*
X0056300Y0118805D02*
X0024550Y0118805D01*
X0017800Y0113055D01*
X0017800Y0076805D01*
X0030300Y0064305D01*
X0067300Y0064305D01*
X0040800Y0085896D02*
X0040300Y0086805D01*
X0031550Y0086805D01*
X0030957Y0085896D01*
X0040300Y0088055D02*
X0040300Y0095555D01*
X0040300Y0088055D02*
X0040800Y0085896D01*
D21*
X0066394Y0061605D02*
X0005100Y0061605D01*
X0005100Y0170966D01*
X0190500Y0170966D01*
X0190500Y0061605D01*
X0175706Y0061605D01*
X0181244Y0067143D01*
X0181962Y0067861D01*
X0182155Y0068328D01*
X0182915Y0068642D01*
X0184463Y0070190D01*
X0185111Y0071755D01*
X0185307Y0071755D01*
X0186244Y0072143D01*
X0186962Y0072861D01*
X0189462Y0075361D01*
X0189850Y0076298D01*
X0189850Y0097312D01*
X0189462Y0098250D01*
X0188744Y0098967D01*
X0187350Y0100361D01*
X0187350Y0103249D01*
X0189462Y0105361D01*
X0189850Y0106298D01*
X0189850Y0116062D01*
X0189462Y0117000D01*
X0188744Y0117717D01*
X0182494Y0123967D01*
X0181557Y0124355D01*
X0175856Y0124355D01*
X0173600Y0126611D01*
X0173600Y0134499D01*
X0174462Y0135361D01*
X0174850Y0136298D01*
X0174850Y0152312D01*
X0174462Y0153250D01*
X0173744Y0153967D01*
X0173600Y0154111D01*
X0173600Y0161062D01*
X0173212Y0162000D01*
X0172494Y0162717D01*
X0167494Y0167717D01*
X0166557Y0168105D01*
X0110543Y0168105D01*
X0109606Y0167717D01*
X0108888Y0167000D01*
X0103888Y0162000D01*
X0103500Y0161062D01*
X0103500Y0150361D01*
X0100694Y0147556D01*
X0100694Y0148732D01*
X0100121Y0149305D01*
X0100694Y0149878D01*
X0100694Y0153732D01*
X0100121Y0154305D01*
X0100694Y0154878D01*
X0100694Y0158732D01*
X0099640Y0159786D01*
X0094175Y0159786D01*
X0093744Y0160217D01*
X0092494Y0161467D01*
X0091557Y0161855D01*
X0089293Y0161855D01*
X0088356Y0161467D01*
X0087638Y0160750D01*
X0086244Y0159355D01*
X0086112Y0159355D01*
X0086112Y0159519D01*
X0085057Y0160574D01*
X0079236Y0160574D01*
X0078800Y0160138D01*
X0078724Y0160214D01*
X0078314Y0160451D01*
X0077856Y0160574D01*
X0075638Y0160574D01*
X0075638Y0156989D01*
X0075269Y0156989D01*
X0075269Y0156621D01*
X0071488Y0156621D01*
X0071488Y0154600D01*
X0071611Y0154142D01*
X0071848Y0153731D01*
X0072183Y0153396D01*
X0072593Y0153159D01*
X0073051Y0153037D01*
X0075269Y0153037D01*
X0075269Y0156621D01*
X0075638Y0156621D01*
X0075638Y0153037D01*
X0077856Y0153037D01*
X0078314Y0153159D01*
X0078724Y0153396D01*
X0078800Y0153472D01*
X0079000Y0153272D01*
X0079000Y0147861D01*
X0057606Y0126467D01*
X0056888Y0125750D01*
X0056500Y0124812D01*
X0056500Y0122861D01*
X0054994Y0121355D01*
X0024652Y0121355D01*
X0024248Y0121387D01*
X0024148Y0121355D01*
X0024043Y0121355D01*
X0023668Y0121200D01*
X0023283Y0121075D01*
X0023203Y0121007D01*
X0023106Y0120967D01*
X0022819Y0120680D01*
X0016453Y0115257D01*
X0016356Y0115217D01*
X0016069Y0114930D01*
X0015760Y0114667D01*
X0015712Y0114574D01*
X0015638Y0114500D01*
X0015483Y0114125D01*
X0015299Y0113764D01*
X0015290Y0113659D01*
X0015250Y0113562D01*
X0015250Y0113157D01*
X0015218Y0112753D01*
X0015250Y0112653D01*
X0015250Y0076298D01*
X0015638Y0075361D01*
X0028138Y0062861D01*
X0028856Y0062143D01*
X0029793Y0061755D01*
X0066244Y0061755D01*
X0066394Y0061605D01*
X0081939Y0064355D02*
X0081939Y0068163D01*
X0082494Y0068393D01*
X0083212Y0069111D01*
X0084083Y0069982D01*
X0085267Y0068797D01*
X0087559Y0067848D01*
X0090041Y0067848D01*
X0092333Y0068797D01*
X0094087Y0070552D01*
X0095037Y0072844D01*
X0095037Y0075325D01*
X0094087Y0077618D01*
X0092333Y0079372D01*
X0090041Y0080322D01*
X0087559Y0080322D01*
X0085267Y0079372D01*
X0084850Y0078955D01*
X0084850Y0082601D01*
X0084868Y0082650D01*
X0084850Y0083106D01*
X0084850Y0083562D01*
X0084830Y0083611D01*
X0084828Y0083664D01*
X0084636Y0084078D01*
X0084462Y0084500D01*
X0084424Y0084537D01*
X0084402Y0084585D01*
X0084067Y0084894D01*
X0083744Y0085217D01*
X0083696Y0085237D01*
X0078350Y0090172D01*
X0078350Y0106366D01*
X0078397Y0106681D01*
X0078350Y0106869D01*
X0078350Y0107062D01*
X0078228Y0107357D01*
X0078151Y0107666D01*
X0078036Y0107821D01*
X0077962Y0108000D01*
X0077737Y0108225D01*
X0077547Y0108481D01*
X0077381Y0108580D01*
X0077244Y0108717D01*
X0076950Y0108839D01*
X0074948Y0110040D01*
X0075236Y0110160D01*
X0076445Y0111369D01*
X0077100Y0112950D01*
X0077100Y0114660D01*
X0076445Y0116241D01*
X0075350Y0117336D01*
X0075350Y0120749D01*
X0080110Y0125509D01*
X0080110Y0116646D01*
X0081165Y0115592D01*
X0090530Y0115592D01*
X0091584Y0116646D01*
X0091584Y0127980D01*
X0091559Y0128005D01*
X0095574Y0128005D01*
X0096043Y0127537D01*
X0101864Y0127537D01*
X0102245Y0127917D01*
X0102250Y0127879D01*
X0102250Y0125617D01*
X0102086Y0125617D01*
X0101031Y0124563D01*
X0101031Y0118741D01*
X0101467Y0118305D01*
X0101031Y0117870D01*
X0101031Y0112105D01*
X0096716Y0112105D01*
X0095661Y0111051D01*
X0095661Y0101686D01*
X0096716Y0100631D01*
X0105020Y0100631D01*
X0103888Y0099500D01*
X0103500Y0098562D01*
X0103500Y0081298D01*
X0103888Y0080361D01*
X0104606Y0079643D01*
X0109750Y0074499D01*
X0109750Y0064355D01*
X0108372Y0064355D01*
X0108409Y0064377D01*
X0108744Y0064712D01*
X0108981Y0065122D01*
X0109104Y0065580D01*
X0109104Y0068954D01*
X0103183Y0068954D01*
X0103183Y0070554D01*
X0109104Y0070554D01*
X0109104Y0073928D01*
X0108981Y0074386D01*
X0108744Y0074796D01*
X0108409Y0075131D01*
X0107999Y0075368D01*
X0107541Y0075491D01*
X0103183Y0075491D01*
X0103183Y0070554D01*
X0101583Y0070554D01*
X0101583Y0075491D01*
X0097224Y0075491D01*
X0096767Y0075368D01*
X0096356Y0075131D01*
X0096021Y0074796D01*
X0095784Y0074386D01*
X0095661Y0073928D01*
X0095661Y0070554D01*
X0101583Y0070554D01*
X0101583Y0068954D01*
X0095661Y0068954D01*
X0095661Y0065580D01*
X0095784Y0065122D01*
X0096021Y0064712D01*
X0096356Y0064377D01*
X0096393Y0064355D01*
X0095856Y0064355D01*
X0093744Y0066467D01*
X0092807Y0066855D01*
X0085543Y0066855D01*
X0084606Y0066467D01*
X0083888Y0065750D01*
X0082494Y0064355D01*
X0081939Y0064355D01*
X0081939Y0065699D02*
X0083838Y0065699D01*
X0081939Y0067298D02*
X0095661Y0067298D01*
X0095661Y0068896D02*
X0092432Y0068896D01*
X0094031Y0070495D02*
X0101583Y0070495D01*
X0101583Y0072093D02*
X0103183Y0072093D01*
X0103183Y0070495D02*
X0109750Y0070495D01*
X0109750Y0072093D02*
X0109104Y0072093D01*
X0109104Y0073692D02*
X0109750Y0073692D01*
X0108959Y0075290D02*
X0108134Y0075290D01*
X0107360Y0076889D02*
X0094389Y0076889D01*
X0095037Y0075290D02*
X0096631Y0075290D01*
X0095661Y0073692D02*
X0095037Y0073692D01*
X0094726Y0072093D02*
X0095661Y0072093D01*
X0101583Y0073692D02*
X0103183Y0073692D01*
X0103183Y0075290D02*
X0101583Y0075290D01*
X0105762Y0078487D02*
X0093218Y0078487D01*
X0090610Y0080086D02*
X0104163Y0080086D01*
X0103500Y0081684D02*
X0084850Y0081684D01*
X0084850Y0080086D02*
X0086990Y0080086D01*
X0084850Y0083283D02*
X0103500Y0083283D01*
X0103500Y0084881D02*
X0084081Y0084881D01*
X0082349Y0086480D02*
X0103500Y0086480D01*
X0103500Y0088078D02*
X0080618Y0088078D01*
X0078886Y0089677D02*
X0103500Y0089677D01*
X0103500Y0091275D02*
X0078350Y0091275D01*
X0078350Y0092874D02*
X0103500Y0092874D01*
X0103500Y0094472D02*
X0078350Y0094472D01*
X0078350Y0096071D02*
X0085956Y0096071D01*
X0085267Y0096356D02*
X0087559Y0095407D01*
X0090041Y0095407D01*
X0092333Y0096356D01*
X0094087Y0098111D01*
X0095037Y0100403D01*
X0095037Y0102884D01*
X0094087Y0105177D01*
X0092333Y0106931D01*
X0090041Y0107881D01*
X0087559Y0107881D01*
X0085267Y0106931D01*
X0083513Y0105177D01*
X0082563Y0102884D01*
X0082563Y0100403D01*
X0083513Y0098111D01*
X0085267Y0096356D01*
X0083954Y0097669D02*
X0078350Y0097669D01*
X0078350Y0099268D02*
X0083033Y0099268D01*
X0082563Y0100866D02*
X0078350Y0100866D01*
X0078350Y0102465D02*
X0082563Y0102465D01*
X0083051Y0104063D02*
X0078350Y0104063D01*
X0078350Y0105662D02*
X0083998Y0105662D01*
X0086062Y0107260D02*
X0078268Y0107260D01*
X0076917Y0108859D02*
X0095661Y0108859D01*
X0095661Y0110457D02*
X0075533Y0110457D01*
X0076730Y0112056D02*
X0096667Y0112056D01*
X0101031Y0113655D02*
X0077100Y0113655D01*
X0076855Y0115253D02*
X0101031Y0115253D01*
X0101031Y0116852D02*
X0091584Y0116852D01*
X0091584Y0118450D02*
X0101322Y0118450D01*
X0101031Y0120049D02*
X0091584Y0120049D01*
X0091584Y0121647D02*
X0101031Y0121647D01*
X0101031Y0123246D02*
X0091584Y0123246D01*
X0091584Y0124844D02*
X0101313Y0124844D01*
X0102250Y0126443D02*
X0091584Y0126443D01*
X0080110Y0124844D02*
X0079445Y0124844D01*
X0080110Y0123246D02*
X0077847Y0123246D01*
X0076248Y0121647D02*
X0080110Y0121647D01*
X0080110Y0120049D02*
X0075350Y0120049D01*
X0075350Y0118450D02*
X0080110Y0118450D01*
X0080110Y0116852D02*
X0075835Y0116852D01*
X0091538Y0107260D02*
X0095661Y0107260D01*
X0095661Y0105662D02*
X0093602Y0105662D01*
X0094549Y0104063D02*
X0095661Y0104063D01*
X0095661Y0102465D02*
X0095037Y0102465D01*
X0095037Y0100866D02*
X0096481Y0100866D01*
X0094567Y0099268D02*
X0103792Y0099268D01*
X0103500Y0097669D02*
X0093646Y0097669D01*
X0091644Y0096071D02*
X0103500Y0096071D01*
X0109104Y0104715D02*
X0109104Y0111051D01*
X0108338Y0111817D01*
X0108568Y0112048D01*
X0108568Y0117870D01*
X0108133Y0118305D01*
X0108568Y0118741D01*
X0108568Y0124563D01*
X0107514Y0125617D01*
X0107350Y0125617D01*
X0107350Y0127537D01*
X0108557Y0127537D01*
X0109612Y0128591D01*
X0109612Y0134019D01*
X0108557Y0135074D01*
X0105925Y0135074D01*
X0109818Y0138966D01*
X0109960Y0138824D01*
X0120113Y0138824D01*
X0121167Y0139878D01*
X0121167Y0143732D01*
X0120594Y0144305D01*
X0121167Y0144878D01*
X0121167Y0148732D01*
X0120644Y0149255D01*
X0122988Y0149255D01*
X0122988Y0149091D01*
X0124043Y0148037D01*
X0129864Y0148037D01*
X0130300Y0148472D01*
X0130376Y0148396D01*
X0130786Y0148159D01*
X0131244Y0148037D01*
X0133462Y0148037D01*
X0133462Y0151621D01*
X0133831Y0151621D01*
X0133831Y0151989D01*
X0137612Y0151989D01*
X0137612Y0154011D01*
X0137489Y0154468D01*
X0137252Y0154879D01*
X0136917Y0155214D01*
X0136507Y0155451D01*
X0136049Y0155574D01*
X0133831Y0155574D01*
X0133831Y0151989D01*
X0133462Y0151989D01*
X0133462Y0155574D01*
X0131244Y0155574D01*
X0130786Y0155451D01*
X0130376Y0155214D01*
X0130300Y0155138D01*
X0129864Y0155574D01*
X0129850Y0155574D01*
X0129850Y0155749D01*
X0130856Y0156755D01*
X0142460Y0156755D01*
X0148683Y0150242D01*
X0147807Y0150605D01*
X0140543Y0150605D01*
X0139606Y0150217D01*
X0138888Y0149500D01*
X0137494Y0148105D01*
X0136793Y0148105D01*
X0135856Y0147717D01*
X0135138Y0147000D01*
X0117638Y0129500D01*
X0117250Y0128562D01*
X0117250Y0108617D01*
X0116586Y0108617D01*
X0116300Y0108331D01*
X0116014Y0108617D01*
X0110586Y0108617D01*
X0109531Y0107563D01*
X0109531Y0105143D01*
X0109104Y0104715D01*
X0109104Y0105662D02*
X0109531Y0105662D01*
X0109531Y0107260D02*
X0109104Y0107260D01*
X0109104Y0108859D02*
X0117250Y0108859D01*
X0117250Y0110457D02*
X0109104Y0110457D01*
X0108568Y0112056D02*
X0117250Y0112056D01*
X0117250Y0113655D02*
X0108568Y0113655D01*
X0108568Y0115253D02*
X0117250Y0115253D01*
X0117250Y0116852D02*
X0108568Y0116852D01*
X0108278Y0118450D02*
X0117250Y0118450D01*
X0117250Y0120049D02*
X0108568Y0120049D01*
X0108568Y0121647D02*
X0117250Y0121647D01*
X0117250Y0123246D02*
X0108568Y0123246D01*
X0108287Y0124844D02*
X0117250Y0124844D01*
X0117250Y0126443D02*
X0107350Y0126443D01*
X0109062Y0128041D02*
X0117250Y0128041D01*
X0117778Y0129640D02*
X0109612Y0129640D01*
X0109612Y0131238D02*
X0119377Y0131238D01*
X0120975Y0132837D02*
X0109612Y0132837D01*
X0109196Y0134435D02*
X0122574Y0134435D01*
X0124172Y0136034D02*
X0106885Y0136034D01*
X0108483Y0137632D02*
X0125771Y0137632D01*
X0127369Y0139231D02*
X0120519Y0139231D01*
X0121167Y0140829D02*
X0128968Y0140829D01*
X0130566Y0142428D02*
X0121167Y0142428D01*
X0120873Y0144026D02*
X0132165Y0144026D01*
X0133763Y0145625D02*
X0121167Y0145625D01*
X0121167Y0147223D02*
X0135362Y0147223D01*
X0136049Y0148037D02*
X0136507Y0148159D01*
X0136917Y0148396D01*
X0137252Y0148731D01*
X0137489Y0149142D01*
X0137612Y0149600D01*
X0137612Y0151621D01*
X0133831Y0151621D01*
X0133831Y0148037D01*
X0136049Y0148037D01*
X0137304Y0148822D02*
X0138210Y0148822D01*
X0137612Y0150420D02*
X0140097Y0150420D01*
X0137612Y0152019D02*
X0146985Y0152019D01*
X0148253Y0150420D02*
X0148513Y0150420D01*
X0145458Y0153617D02*
X0137612Y0153617D01*
X0136914Y0155216D02*
X0143931Y0155216D01*
X0147930Y0158413D02*
X0155146Y0158413D01*
X0155146Y0160011D02*
X0146402Y0160011D01*
X0145723Y0160722D02*
X0145712Y0160750D01*
X0145374Y0161088D01*
X0145043Y0161434D01*
X0145016Y0161446D01*
X0144994Y0161467D01*
X0144553Y0161650D01*
X0144115Y0161843D01*
X0144085Y0161844D01*
X0144057Y0161855D01*
X0143579Y0161855D01*
X0143101Y0161866D01*
X0143073Y0161855D01*
X0129293Y0161855D01*
X0128356Y0161467D01*
X0127638Y0160750D01*
X0125138Y0158250D01*
X0124750Y0157312D01*
X0124750Y0155574D01*
X0124043Y0155574D01*
X0122988Y0154519D01*
X0122988Y0154355D01*
X0120644Y0154355D01*
X0120807Y0154519D01*
X0121044Y0154929D01*
X0121167Y0155387D01*
X0121167Y0156805D01*
X0115036Y0156805D01*
X0108906Y0156805D01*
X0108906Y0155387D01*
X0109028Y0154929D01*
X0109265Y0154519D01*
X0109479Y0154305D01*
X0108906Y0153732D01*
X0108906Y0149878D01*
X0109429Y0149355D01*
X0108600Y0149355D01*
X0108600Y0159499D01*
X0112106Y0163005D01*
X0164994Y0163005D01*
X0166138Y0161861D01*
X0156200Y0161861D01*
X0155146Y0160807D01*
X0155146Y0153804D01*
X0156200Y0152749D01*
X0161000Y0152749D01*
X0161000Y0134861D01*
X0156850Y0134861D01*
X0156850Y0148026D01*
X0156861Y0148504D01*
X0156850Y0148532D01*
X0156850Y0148562D01*
X0156667Y0149004D01*
X0156494Y0149450D01*
X0156473Y0149472D01*
X0156462Y0149500D01*
X0156123Y0149838D01*
X0145723Y0160722D01*
X0144649Y0161610D02*
X0155949Y0161610D01*
X0155146Y0156814D02*
X0149457Y0156814D01*
X0150985Y0155216D02*
X0155146Y0155216D01*
X0155332Y0153617D02*
X0152512Y0153617D01*
X0154039Y0152019D02*
X0161000Y0152019D01*
X0161000Y0150420D02*
X0155567Y0150420D01*
X0156743Y0148822D02*
X0161000Y0148822D01*
X0161000Y0147223D02*
X0156850Y0147223D01*
X0156850Y0145625D02*
X0161000Y0145625D01*
X0161000Y0144026D02*
X0156850Y0144026D01*
X0156850Y0142428D02*
X0161000Y0142428D01*
X0161000Y0140829D02*
X0156850Y0140829D01*
X0156850Y0139231D02*
X0161000Y0139231D01*
X0161000Y0137632D02*
X0156850Y0137632D01*
X0156850Y0136034D02*
X0161000Y0136034D01*
X0161227Y0125749D02*
X0156200Y0125749D01*
X0156100Y0125849D01*
X0156100Y0115361D01*
X0158962Y0112500D01*
X0159350Y0111562D01*
X0159350Y0100048D01*
X0158962Y0099111D01*
X0158244Y0098393D01*
X0155744Y0095893D01*
X0154807Y0095505D01*
X0150543Y0095505D01*
X0149606Y0095893D01*
X0148888Y0096611D01*
X0148744Y0096755D01*
X0144293Y0096755D01*
X0143356Y0097143D01*
X0142638Y0097861D01*
X0141468Y0099030D01*
X0141087Y0098111D01*
X0139333Y0096356D01*
X0137041Y0095407D01*
X0134559Y0095407D01*
X0132267Y0096356D01*
X0130513Y0098111D01*
X0129563Y0100403D01*
X0129563Y0102884D01*
X0130513Y0105177D01*
X0132267Y0106931D01*
X0134559Y0107881D01*
X0135118Y0107881D01*
X0134994Y0108005D01*
X0128043Y0108005D01*
X0127106Y0108393D01*
X0126388Y0109111D01*
X0122350Y0113149D01*
X0122350Y0108281D01*
X0123068Y0107563D01*
X0123068Y0106855D01*
X0125307Y0106855D01*
X0126244Y0106467D01*
X0127494Y0105217D01*
X0128212Y0104500D01*
X0128600Y0103562D01*
X0128600Y0099111D01*
X0139606Y0088105D01*
X0164057Y0088105D01*
X0164994Y0087717D01*
X0168500Y0084211D01*
X0168500Y0101062D01*
X0168888Y0102000D01*
X0175120Y0108231D01*
X0174800Y0109004D01*
X0174504Y0108422D01*
X0173995Y0107722D01*
X0173383Y0107110D01*
X0172683Y0106601D01*
X0171911Y0106208D01*
X0171088Y0105941D01*
X0170233Y0105805D01*
X0170000Y0105805D01*
X0170000Y0111105D01*
X0169600Y0111105D01*
X0169600Y0105805D01*
X0169367Y0105805D01*
X0168512Y0105941D01*
X0167689Y0106208D01*
X0166917Y0106601D01*
X0166217Y0107110D01*
X0165605Y0107722D01*
X0165096Y0108422D01*
X0164703Y0109194D01*
X0164435Y0110017D01*
X0164300Y0110872D01*
X0164300Y0111105D01*
X0169600Y0111105D01*
X0169600Y0111505D01*
X0164300Y0111505D01*
X0164300Y0111738D01*
X0164435Y0112593D01*
X0164703Y0113416D01*
X0165096Y0114188D01*
X0165605Y0114888D01*
X0166217Y0115500D01*
X0166917Y0116009D01*
X0167689Y0116402D01*
X0168512Y0116670D01*
X0169367Y0116805D01*
X0169600Y0116805D01*
X0169600Y0111505D01*
X0170000Y0111505D01*
X0170000Y0116805D01*
X0170233Y0116805D01*
X0170539Y0116757D01*
X0169606Y0117143D01*
X0168888Y0117861D01*
X0168888Y0117861D01*
X0161388Y0125361D01*
X0161227Y0125749D01*
X0161905Y0124844D02*
X0156100Y0124844D01*
X0156100Y0123246D02*
X0163503Y0123246D01*
X0165102Y0121647D02*
X0156100Y0121647D01*
X0156100Y0120049D02*
X0166700Y0120049D01*
X0168299Y0118450D02*
X0156100Y0118450D01*
X0156100Y0116852D02*
X0170310Y0116852D01*
X0170000Y0115253D02*
X0169600Y0115253D01*
X0169600Y0113655D02*
X0170000Y0113655D01*
X0170000Y0112056D02*
X0169600Y0112056D01*
X0169600Y0110457D02*
X0170000Y0110457D01*
X0170000Y0108859D02*
X0169600Y0108859D01*
X0169600Y0107260D02*
X0170000Y0107260D01*
X0172551Y0105662D02*
X0159350Y0105662D01*
X0159350Y0107260D02*
X0166066Y0107260D01*
X0164874Y0108859D02*
X0159350Y0108859D01*
X0159350Y0110457D02*
X0164366Y0110457D01*
X0164350Y0112056D02*
X0159146Y0112056D01*
X0157807Y0113655D02*
X0164824Y0113655D01*
X0165970Y0115253D02*
X0156208Y0115253D01*
X0159350Y0104063D02*
X0170952Y0104063D01*
X0169354Y0102465D02*
X0159350Y0102465D01*
X0159350Y0100866D02*
X0168500Y0100866D01*
X0168500Y0099268D02*
X0159027Y0099268D01*
X0157521Y0097669D02*
X0168500Y0097669D01*
X0168500Y0096071D02*
X0155922Y0096071D01*
X0149428Y0096071D02*
X0138644Y0096071D01*
X0140646Y0097669D02*
X0142829Y0097669D01*
X0136436Y0091275D02*
X0168500Y0091275D01*
X0168500Y0089677D02*
X0138035Y0089677D01*
X0134837Y0092874D02*
X0168500Y0092874D01*
X0168500Y0094472D02*
X0133239Y0094472D01*
X0132956Y0096071D02*
X0131640Y0096071D01*
X0130954Y0097669D02*
X0130042Y0097669D01*
X0130033Y0099268D02*
X0128600Y0099268D01*
X0128600Y0100866D02*
X0129563Y0100866D01*
X0129563Y0102465D02*
X0128600Y0102465D01*
X0128392Y0104063D02*
X0130051Y0104063D01*
X0130998Y0105662D02*
X0127049Y0105662D01*
X0126640Y0108859D02*
X0122350Y0108859D01*
X0122350Y0110457D02*
X0125041Y0110457D01*
X0123443Y0112056D02*
X0122350Y0112056D01*
X0123068Y0107260D02*
X0133062Y0107260D01*
X0143456Y0083005D02*
X0146244Y0080217D01*
X0146962Y0079500D01*
X0147350Y0078562D01*
X0147350Y0076298D01*
X0147016Y0075491D01*
X0148583Y0075491D01*
X0148583Y0070554D01*
X0150183Y0070554D01*
X0150183Y0075491D01*
X0154541Y0075491D01*
X0154999Y0075368D01*
X0155409Y0075131D01*
X0155744Y0074796D01*
X0155981Y0074386D01*
X0156104Y0073928D01*
X0156104Y0072635D01*
X0156543Y0073074D01*
X0162364Y0073074D01*
X0162800Y0072638D01*
X0162876Y0072714D01*
X0163286Y0072951D01*
X0163744Y0073074D01*
X0165962Y0073074D01*
X0165962Y0069489D01*
X0166331Y0069489D01*
X0170112Y0069489D01*
X0170112Y0071511D01*
X0169989Y0071968D01*
X0169752Y0072379D01*
X0169417Y0072714D01*
X0169007Y0072951D01*
X0168549Y0073074D01*
X0166331Y0073074D01*
X0166331Y0069489D01*
X0166331Y0069121D01*
X0170112Y0069121D01*
X0170112Y0067100D01*
X0169989Y0066642D01*
X0169752Y0066231D01*
X0169417Y0065896D01*
X0169025Y0065670D01*
X0169657Y0065037D01*
X0169940Y0064355D01*
X0171244Y0064355D01*
X0176108Y0069219D01*
X0175137Y0070190D01*
X0174489Y0071755D01*
X0174293Y0071755D01*
X0173356Y0072143D01*
X0172638Y0072861D01*
X0162494Y0083005D01*
X0143456Y0083005D01*
X0144777Y0081684D02*
X0163815Y0081684D01*
X0165413Y0080086D02*
X0146376Y0080086D01*
X0147350Y0078487D02*
X0167012Y0078487D01*
X0168610Y0076889D02*
X0147350Y0076889D01*
X0148583Y0075290D02*
X0150183Y0075290D01*
X0150183Y0073692D02*
X0148583Y0073692D01*
X0148583Y0072093D02*
X0150183Y0072093D01*
X0150183Y0068954D02*
X0148583Y0068954D01*
X0148583Y0064017D01*
X0144224Y0064017D01*
X0143767Y0064140D01*
X0143356Y0064377D01*
X0143021Y0064712D01*
X0142784Y0065122D01*
X0142661Y0065580D01*
X0142661Y0068560D01*
X0142350Y0068249D01*
X0142350Y0066298D01*
X0141962Y0065361D01*
X0139462Y0062861D01*
X0138744Y0062143D01*
X0137807Y0061755D01*
X0132106Y0061755D01*
X0131956Y0061605D01*
X0155579Y0061605D01*
X0155579Y0064159D01*
X0155943Y0065037D01*
X0156492Y0065587D01*
X0156104Y0065975D01*
X0156104Y0065580D01*
X0155981Y0065122D01*
X0155744Y0064712D01*
X0155409Y0064377D01*
X0154999Y0064140D01*
X0154541Y0064017D01*
X0150183Y0064017D01*
X0150183Y0068954D01*
X0150183Y0068896D02*
X0148583Y0068896D01*
X0148583Y0067298D02*
X0150183Y0067298D01*
X0150183Y0065699D02*
X0148583Y0065699D01*
X0148583Y0064101D02*
X0150183Y0064101D01*
X0154853Y0064101D02*
X0155579Y0064101D01*
X0155579Y0062502D02*
X0139103Y0062502D01*
X0140702Y0064101D02*
X0143912Y0064101D01*
X0142661Y0065699D02*
X0142102Y0065699D01*
X0142350Y0067298D02*
X0142661Y0067298D01*
X0156104Y0065699D02*
X0156380Y0065699D01*
X0156104Y0073692D02*
X0171807Y0073692D01*
X0170209Y0075290D02*
X0155134Y0075290D01*
X0165962Y0072093D02*
X0166331Y0072093D01*
X0166331Y0070495D02*
X0165962Y0070495D01*
X0170112Y0070495D02*
X0175011Y0070495D01*
X0175785Y0068896D02*
X0170112Y0068896D01*
X0170112Y0067298D02*
X0174186Y0067298D01*
X0172588Y0065699D02*
X0169076Y0065699D01*
X0169917Y0072093D02*
X0173477Y0072093D01*
X0179800Y0065699D02*
X0190500Y0065699D01*
X0190500Y0064101D02*
X0178202Y0064101D01*
X0176603Y0062502D02*
X0190500Y0062502D01*
X0190500Y0067298D02*
X0181399Y0067298D01*
X0181244Y0067143D02*
X0181244Y0067143D01*
X0183169Y0068896D02*
X0190500Y0068896D01*
X0190500Y0070495D02*
X0184589Y0070495D01*
X0186123Y0072093D02*
X0190500Y0072093D01*
X0190500Y0073692D02*
X0187793Y0073692D01*
X0189391Y0075290D02*
X0190500Y0075290D01*
X0190500Y0076889D02*
X0189850Y0076889D01*
X0189850Y0078487D02*
X0190500Y0078487D01*
X0190500Y0080086D02*
X0189850Y0080086D01*
X0189850Y0081684D02*
X0190500Y0081684D01*
X0190500Y0083283D02*
X0189850Y0083283D01*
X0189850Y0084881D02*
X0190500Y0084881D01*
X0190500Y0086480D02*
X0189850Y0086480D01*
X0189850Y0088078D02*
X0190500Y0088078D01*
X0190500Y0089677D02*
X0189850Y0089677D01*
X0189850Y0091275D02*
X0190500Y0091275D01*
X0190500Y0092874D02*
X0189850Y0092874D01*
X0189850Y0094472D02*
X0190500Y0094472D01*
X0190500Y0096071D02*
X0189850Y0096071D01*
X0189702Y0097669D02*
X0190500Y0097669D01*
X0190500Y0099268D02*
X0188443Y0099268D01*
X0187350Y0100866D02*
X0190500Y0100866D01*
X0190500Y0102465D02*
X0187350Y0102465D01*
X0188165Y0104063D02*
X0190500Y0104063D01*
X0190500Y0105662D02*
X0189587Y0105662D01*
X0189850Y0107260D02*
X0190500Y0107260D01*
X0190500Y0108859D02*
X0189850Y0108859D01*
X0189850Y0110457D02*
X0190500Y0110457D01*
X0190500Y0112056D02*
X0189850Y0112056D01*
X0189850Y0113655D02*
X0190500Y0113655D01*
X0190500Y0115253D02*
X0189850Y0115253D01*
X0189523Y0116852D02*
X0190500Y0116852D01*
X0190500Y0118450D02*
X0188011Y0118450D01*
X0186413Y0120049D02*
X0190500Y0120049D01*
X0190500Y0121647D02*
X0184814Y0121647D01*
X0183216Y0123246D02*
X0190500Y0123246D01*
X0190500Y0124844D02*
X0175367Y0124844D01*
X0175606Y0125749D02*
X0181171Y0125749D01*
X0181171Y0129727D01*
X0182327Y0129727D01*
X0182327Y0130883D01*
X0189454Y0130883D01*
X0189454Y0133298D01*
X0189332Y0133756D01*
X0189095Y0134166D01*
X0188760Y0134501D01*
X0188349Y0134738D01*
X0187891Y0134861D01*
X0182327Y0134861D01*
X0182327Y0130883D01*
X0181171Y0130883D01*
X0181171Y0134861D01*
X0175606Y0134861D01*
X0175149Y0134738D01*
X0174738Y0134501D01*
X0174403Y0134166D01*
X0174166Y0133756D01*
X0174043Y0133298D01*
X0174043Y0130883D01*
X0181171Y0130883D01*
X0181171Y0129727D01*
X0174043Y0129727D01*
X0174043Y0127312D01*
X0174166Y0126854D01*
X0174403Y0126444D01*
X0174738Y0126109D01*
X0175149Y0125872D01*
X0175606Y0125749D01*
X0174404Y0126443D02*
X0173769Y0126443D01*
X0173600Y0128041D02*
X0174043Y0128041D01*
X0174043Y0129640D02*
X0173600Y0129640D01*
X0173600Y0131238D02*
X0174043Y0131238D01*
X0174043Y0132837D02*
X0173600Y0132837D01*
X0173600Y0134435D02*
X0174672Y0134435D01*
X0174741Y0136034D02*
X0190500Y0136034D01*
X0190500Y0137632D02*
X0174850Y0137632D01*
X0174850Y0139231D02*
X0190500Y0139231D01*
X0190500Y0140829D02*
X0174850Y0140829D01*
X0174850Y0142428D02*
X0190500Y0142428D01*
X0190500Y0144026D02*
X0174850Y0144026D01*
X0174850Y0145625D02*
X0190500Y0145625D01*
X0190500Y0147223D02*
X0174850Y0147223D01*
X0174850Y0148822D02*
X0190500Y0148822D01*
X0190500Y0150420D02*
X0174850Y0150420D01*
X0174850Y0152019D02*
X0190500Y0152019D01*
X0190500Y0153617D02*
X0189195Y0153617D01*
X0189095Y0153444D02*
X0189332Y0153854D01*
X0189454Y0154312D01*
X0189454Y0156727D01*
X0182327Y0156727D01*
X0182327Y0157883D01*
X0189454Y0157883D01*
X0189454Y0160298D01*
X0189332Y0160756D01*
X0189095Y0161166D01*
X0188760Y0161501D01*
X0188349Y0161738D01*
X0187891Y0161861D01*
X0182327Y0161861D01*
X0182327Y0157883D01*
X0181171Y0157883D01*
X0181171Y0161861D01*
X0175606Y0161861D01*
X0175149Y0161738D01*
X0174738Y0161501D01*
X0174403Y0161166D01*
X0174166Y0160756D01*
X0174043Y0160298D01*
X0174043Y0157883D01*
X0181171Y0157883D01*
X0181171Y0156727D01*
X0182327Y0156727D01*
X0182327Y0152749D01*
X0187891Y0152749D01*
X0188349Y0152872D01*
X0188760Y0153109D01*
X0189095Y0153444D01*
X0189454Y0155216D02*
X0190500Y0155216D01*
X0190500Y0156814D02*
X0182327Y0156814D01*
X0181171Y0156814D02*
X0173600Y0156814D01*
X0174043Y0156727D02*
X0174043Y0154312D01*
X0174166Y0153854D01*
X0174403Y0153444D01*
X0174738Y0153109D01*
X0175149Y0152872D01*
X0175606Y0152749D01*
X0181171Y0152749D01*
X0181171Y0156727D01*
X0174043Y0156727D01*
X0174043Y0155216D02*
X0173600Y0155216D01*
X0174094Y0153617D02*
X0174303Y0153617D01*
X0174043Y0158413D02*
X0173600Y0158413D01*
X0173600Y0160011D02*
X0174043Y0160011D01*
X0173373Y0161610D02*
X0174926Y0161610D01*
X0172003Y0163208D02*
X0190500Y0163208D01*
X0190500Y0161610D02*
X0188572Y0161610D01*
X0189454Y0160011D02*
X0190500Y0160011D01*
X0190500Y0158413D02*
X0189454Y0158413D01*
X0182327Y0158413D02*
X0181171Y0158413D01*
X0181171Y0160011D02*
X0182327Y0160011D01*
X0182327Y0161610D02*
X0181171Y0161610D01*
X0181171Y0155216D02*
X0182327Y0155216D01*
X0182327Y0153617D02*
X0181171Y0153617D01*
X0190500Y0164807D02*
X0170404Y0164807D01*
X0168806Y0166405D02*
X0190500Y0166405D01*
X0190500Y0168004D02*
X0166802Y0168004D01*
X0190500Y0169602D02*
X0005100Y0169602D01*
X0005100Y0168004D02*
X0110298Y0168004D01*
X0108294Y0166405D02*
X0005100Y0166405D01*
X0005100Y0164807D02*
X0106696Y0164807D01*
X0105097Y0163208D02*
X0005100Y0163208D01*
X0005100Y0161610D02*
X0088701Y0161610D01*
X0086900Y0160011D02*
X0085620Y0160011D01*
X0092149Y0161610D02*
X0103727Y0161610D01*
X0103500Y0160011D02*
X0093950Y0160011D01*
X0100694Y0158413D02*
X0103500Y0158413D01*
X0103500Y0156814D02*
X0100694Y0156814D01*
X0100694Y0155216D02*
X0103500Y0155216D01*
X0103500Y0153617D02*
X0100694Y0153617D01*
X0100694Y0152019D02*
X0103500Y0152019D01*
X0103500Y0150420D02*
X0100694Y0150420D01*
X0100605Y0148822D02*
X0101960Y0148822D01*
X0108600Y0150420D02*
X0108906Y0150420D01*
X0108906Y0152019D02*
X0108600Y0152019D01*
X0108600Y0153617D02*
X0108906Y0153617D01*
X0108951Y0155216D02*
X0108600Y0155216D01*
X0108600Y0156814D02*
X0108906Y0156814D01*
X0108905Y0156805D02*
X0115036Y0156805D01*
X0115036Y0156805D01*
X0115036Y0159786D01*
X0110469Y0159786D01*
X0110011Y0159664D01*
X0109600Y0159427D01*
X0109265Y0159091D01*
X0109028Y0158681D01*
X0108906Y0158223D01*
X0108905Y0156805D01*
X0108956Y0158413D02*
X0108600Y0158413D01*
X0109112Y0160011D02*
X0126900Y0160011D01*
X0125301Y0158413D02*
X0121116Y0158413D01*
X0121167Y0158223D02*
X0121044Y0158681D01*
X0120807Y0159091D01*
X0120472Y0159427D01*
X0120062Y0159664D01*
X0119604Y0159786D01*
X0115036Y0159786D01*
X0115036Y0156805D01*
X0115036Y0156805D01*
X0115036Y0156805D01*
X0121167Y0156805D01*
X0121167Y0158223D01*
X0121167Y0156814D02*
X0124750Y0156814D01*
X0123685Y0155216D02*
X0121121Y0155216D01*
X0115036Y0156814D02*
X0115036Y0156814D01*
X0115036Y0158413D02*
X0115036Y0158413D01*
X0110711Y0161610D02*
X0128701Y0161610D01*
X0130222Y0155216D02*
X0130379Y0155216D01*
X0133462Y0155216D02*
X0133831Y0155216D01*
X0133831Y0153617D02*
X0133462Y0153617D01*
X0133462Y0152019D02*
X0133831Y0152019D01*
X0133831Y0150420D02*
X0133462Y0150420D01*
X0133462Y0148822D02*
X0133831Y0148822D01*
X0123257Y0148822D02*
X0121077Y0148822D01*
X0079000Y0148822D02*
X0005100Y0148822D01*
X0005100Y0150420D02*
X0079000Y0150420D01*
X0079000Y0152019D02*
X0005100Y0152019D01*
X0005100Y0153617D02*
X0071962Y0153617D01*
X0071488Y0155216D02*
X0005100Y0155216D01*
X0005100Y0156814D02*
X0075269Y0156814D01*
X0075269Y0156989D02*
X0071488Y0156989D01*
X0071488Y0159011D01*
X0071611Y0159468D01*
X0071848Y0159879D01*
X0072183Y0160214D01*
X0072593Y0160451D01*
X0073051Y0160574D01*
X0075269Y0160574D01*
X0075269Y0156989D01*
X0075269Y0158413D02*
X0075638Y0158413D01*
X0075638Y0160011D02*
X0075269Y0160011D01*
X0071980Y0160011D02*
X0005100Y0160011D01*
X0005100Y0158413D02*
X0071488Y0158413D01*
X0075269Y0155216D02*
X0075638Y0155216D01*
X0075638Y0153617D02*
X0075269Y0153617D01*
X0078362Y0147223D02*
X0005100Y0147223D01*
X0005100Y0145625D02*
X0076763Y0145625D01*
X0075165Y0144026D02*
X0005100Y0144026D01*
X0005100Y0142428D02*
X0073566Y0142428D01*
X0071968Y0140829D02*
X0005100Y0140829D01*
X0005100Y0139231D02*
X0070369Y0139231D01*
X0068771Y0137632D02*
X0005100Y0137632D01*
X0005100Y0136034D02*
X0067172Y0136034D01*
X0065574Y0134435D02*
X0005100Y0134435D01*
X0005100Y0132837D02*
X0063975Y0132837D01*
X0062377Y0131238D02*
X0005100Y0131238D01*
X0005100Y0129640D02*
X0060778Y0129640D01*
X0059180Y0128041D02*
X0005100Y0128041D01*
X0005100Y0126443D02*
X0057581Y0126443D01*
X0056513Y0124844D02*
X0005100Y0124844D01*
X0005100Y0123246D02*
X0056500Y0123246D01*
X0055286Y0121647D02*
X0005100Y0121647D01*
X0005100Y0120049D02*
X0022077Y0120049D01*
X0020201Y0118450D02*
X0005100Y0118450D01*
X0005100Y0116852D02*
X0018324Y0116852D01*
X0016443Y0115253D02*
X0005100Y0115253D01*
X0005100Y0113655D02*
X0015288Y0113655D01*
X0015250Y0112056D02*
X0005100Y0112056D01*
X0005100Y0110457D02*
X0015250Y0110457D01*
X0015250Y0108859D02*
X0005100Y0108859D01*
X0005100Y0107260D02*
X0015250Y0107260D01*
X0015250Y0105662D02*
X0005100Y0105662D01*
X0005100Y0104063D02*
X0015250Y0104063D01*
X0015250Y0102465D02*
X0005100Y0102465D01*
X0005100Y0100866D02*
X0015250Y0100866D01*
X0015250Y0099268D02*
X0005100Y0099268D01*
X0005100Y0097669D02*
X0015250Y0097669D01*
X0015250Y0096071D02*
X0005100Y0096071D01*
X0005100Y0094472D02*
X0015250Y0094472D01*
X0015250Y0092874D02*
X0005100Y0092874D01*
X0005100Y0091275D02*
X0015250Y0091275D01*
X0015250Y0089677D02*
X0005100Y0089677D01*
X0005100Y0088078D02*
X0015250Y0088078D01*
X0015250Y0086480D02*
X0005100Y0086480D01*
X0005100Y0084881D02*
X0015250Y0084881D01*
X0015250Y0083283D02*
X0005100Y0083283D01*
X0005100Y0081684D02*
X0015250Y0081684D01*
X0015250Y0080086D02*
X0005100Y0080086D01*
X0005100Y0078487D02*
X0015250Y0078487D01*
X0015250Y0076889D02*
X0005100Y0076889D01*
X0005100Y0075290D02*
X0015709Y0075290D01*
X0017307Y0073692D02*
X0005100Y0073692D01*
X0005100Y0072093D02*
X0018906Y0072093D01*
X0020504Y0070495D02*
X0005100Y0070495D01*
X0005100Y0068896D02*
X0022103Y0068896D01*
X0023701Y0067298D02*
X0005100Y0067298D01*
X0005100Y0065699D02*
X0025300Y0065699D01*
X0026898Y0064101D02*
X0005100Y0064101D01*
X0005100Y0062502D02*
X0028497Y0062502D01*
X0027244Y0080967D02*
X0024100Y0084111D01*
X0024100Y0089499D01*
X0027462Y0092861D01*
X0027850Y0093798D01*
X0027850Y0098829D01*
X0028324Y0099304D01*
X0028391Y0099188D01*
X0028726Y0098853D01*
X0029137Y0098616D01*
X0029595Y0098493D01*
X0031616Y0098493D01*
X0031616Y0102274D01*
X0031984Y0102274D01*
X0031984Y0098493D01*
X0034005Y0098493D01*
X0034463Y0098616D01*
X0034874Y0098853D01*
X0035209Y0099188D01*
X0035446Y0099599D01*
X0035568Y0100056D01*
X0035568Y0102274D01*
X0031984Y0102274D01*
X0031984Y0102643D01*
X0035568Y0102643D01*
X0035568Y0104861D01*
X0035446Y0105319D01*
X0035209Y0105729D01*
X0035133Y0105805D01*
X0035568Y0106241D01*
X0035568Y0112063D01*
X0034514Y0113117D01*
X0029086Y0113117D01*
X0028300Y0112331D01*
X0027514Y0113117D01*
X0022086Y0113117D01*
X0021031Y0112063D01*
X0021031Y0106241D01*
X0021467Y0105805D01*
X0021031Y0105370D01*
X0021031Y0099548D01*
X0022086Y0098493D01*
X0022750Y0098493D01*
X0022750Y0095361D01*
X0020350Y0092961D01*
X0020350Y0111878D01*
X0025489Y0116255D01*
X0056209Y0116255D01*
X0056625Y0116226D01*
X0056714Y0116255D01*
X0056807Y0116255D01*
X0057192Y0116415D01*
X0057588Y0116546D01*
X0057658Y0116608D01*
X0057744Y0116643D01*
X0058039Y0116938D01*
X0058354Y0117211D01*
X0058396Y0117295D01*
X0058462Y0117361D01*
X0058621Y0117746D01*
X0058646Y0117795D01*
X0059000Y0118149D01*
X0059000Y0106611D01*
X0050494Y0098105D01*
X0042850Y0098105D01*
X0042850Y0098493D01*
X0043514Y0098493D01*
X0044324Y0099304D01*
X0044391Y0099188D01*
X0044726Y0098853D01*
X0045137Y0098616D01*
X0045595Y0098493D01*
X0047616Y0098493D01*
X0047616Y0102274D01*
X0047984Y0102274D01*
X0047984Y0098493D01*
X0050005Y0098493D01*
X0050463Y0098616D01*
X0050874Y0098853D01*
X0051209Y0099188D01*
X0051446Y0099599D01*
X0051568Y0100056D01*
X0051568Y0102274D01*
X0047984Y0102274D01*
X0047984Y0102643D01*
X0051568Y0102643D01*
X0051568Y0104861D01*
X0051446Y0105319D01*
X0051209Y0105729D01*
X0051133Y0105805D01*
X0051568Y0106241D01*
X0051568Y0112063D01*
X0050514Y0113117D01*
X0045086Y0113117D01*
X0044300Y0112331D01*
X0043514Y0113117D01*
X0038086Y0113117D01*
X0037031Y0112063D01*
X0037031Y0106241D01*
X0037467Y0105805D01*
X0037031Y0105370D01*
X0037031Y0099548D01*
X0037750Y0098829D01*
X0037750Y0091235D01*
X0037345Y0091067D01*
X0035879Y0089601D01*
X0034413Y0091067D01*
X0032171Y0091996D01*
X0029744Y0091996D01*
X0027502Y0091067D01*
X0025786Y0089351D01*
X0024857Y0087109D01*
X0024857Y0084682D01*
X0025786Y0082440D01*
X0027252Y0080974D01*
X0027244Y0080967D01*
X0026542Y0081684D02*
X0026527Y0081684D01*
X0025437Y0083283D02*
X0024929Y0083283D01*
X0024857Y0084881D02*
X0024100Y0084881D01*
X0024100Y0086480D02*
X0024857Y0086480D01*
X0025259Y0088078D02*
X0024100Y0088078D01*
X0024278Y0089677D02*
X0026112Y0089677D01*
X0025876Y0091275D02*
X0028005Y0091275D01*
X0027467Y0092874D02*
X0037750Y0092874D01*
X0037750Y0094472D02*
X0027850Y0094472D01*
X0027850Y0096071D02*
X0037750Y0096071D01*
X0037750Y0097669D02*
X0027850Y0097669D01*
X0028289Y0099268D02*
X0028345Y0099268D01*
X0031616Y0099268D02*
X0031984Y0099268D01*
X0031984Y0100866D02*
X0031616Y0100866D01*
X0031984Y0102465D02*
X0037031Y0102465D01*
X0037031Y0104063D02*
X0035568Y0104063D01*
X0035248Y0105662D02*
X0037324Y0105662D01*
X0037031Y0107260D02*
X0035568Y0107260D01*
X0035568Y0108859D02*
X0037031Y0108859D01*
X0037031Y0110457D02*
X0035568Y0110457D01*
X0035568Y0112056D02*
X0037031Y0112056D01*
X0037031Y0100866D02*
X0035568Y0100866D01*
X0035255Y0099268D02*
X0037311Y0099268D01*
X0044289Y0099268D02*
X0044345Y0099268D01*
X0047616Y0099268D02*
X0047984Y0099268D01*
X0047984Y0100866D02*
X0047616Y0100866D01*
X0047984Y0102465D02*
X0054854Y0102465D01*
X0056452Y0104063D02*
X0051568Y0104063D01*
X0051248Y0105662D02*
X0058051Y0105662D01*
X0059000Y0107260D02*
X0051568Y0107260D01*
X0051568Y0108859D02*
X0059000Y0108859D01*
X0059000Y0110457D02*
X0051568Y0110457D01*
X0051568Y0112056D02*
X0059000Y0112056D01*
X0059000Y0113655D02*
X0022436Y0113655D01*
X0021031Y0112056D02*
X0020559Y0112056D01*
X0020350Y0110457D02*
X0021031Y0110457D01*
X0021031Y0108859D02*
X0020350Y0108859D01*
X0020350Y0107260D02*
X0021031Y0107260D01*
X0021324Y0105662D02*
X0020350Y0105662D01*
X0020350Y0104063D02*
X0021031Y0104063D01*
X0021031Y0102465D02*
X0020350Y0102465D01*
X0020350Y0100866D02*
X0021031Y0100866D01*
X0021311Y0099268D02*
X0020350Y0099268D01*
X0020350Y0097669D02*
X0022750Y0097669D01*
X0022750Y0096071D02*
X0020350Y0096071D01*
X0020350Y0094472D02*
X0021861Y0094472D01*
X0033910Y0091275D02*
X0037750Y0091275D01*
X0035954Y0089677D02*
X0035803Y0089677D01*
X0051255Y0099268D02*
X0051657Y0099268D01*
X0051568Y0100866D02*
X0053255Y0100866D01*
X0059000Y0115253D02*
X0024312Y0115253D01*
X0057953Y0116852D02*
X0059000Y0116852D01*
X0082997Y0068896D02*
X0085168Y0068896D01*
X0094512Y0065699D02*
X0095661Y0065699D01*
X0109104Y0065699D02*
X0109750Y0065699D01*
X0109750Y0067298D02*
X0109104Y0067298D01*
X0109104Y0068896D02*
X0109750Y0068896D01*
X0164122Y0088078D02*
X0168500Y0088078D01*
X0168500Y0086480D02*
X0166232Y0086480D01*
X0167830Y0084881D02*
X0168500Y0084881D01*
X0173534Y0107260D02*
X0174149Y0107260D01*
X0174726Y0108859D02*
X0174860Y0108859D01*
X0182327Y0125749D02*
X0187891Y0125749D01*
X0188349Y0125872D01*
X0188760Y0126109D01*
X0189095Y0126444D01*
X0189332Y0126854D01*
X0189454Y0127312D01*
X0189454Y0129727D01*
X0182327Y0129727D01*
X0182327Y0125749D01*
X0182327Y0126443D02*
X0181171Y0126443D01*
X0181171Y0128041D02*
X0182327Y0128041D01*
X0182327Y0129640D02*
X0181171Y0129640D01*
X0181171Y0131238D02*
X0182327Y0131238D01*
X0182327Y0132837D02*
X0181171Y0132837D01*
X0181171Y0134435D02*
X0182327Y0134435D01*
X0188826Y0134435D02*
X0190500Y0134435D01*
X0190500Y0132837D02*
X0189454Y0132837D01*
X0189454Y0131238D02*
X0190500Y0131238D01*
X0190500Y0129640D02*
X0189454Y0129640D01*
X0189454Y0128041D02*
X0190500Y0128041D01*
X0190500Y0126443D02*
X0189093Y0126443D01*
M02*
